<?xml version="1.0" encoding="UTF-8"?>
<svg id="Layer_1" data-name="Layer 1" xmlns="http://www.w3.org/2000/svg" xmlns:xlink="http://www.w3.org/1999/xlink" viewBox="0 0 167.44 60.28">
  <defs>
    <style>
      .cls-1 {
        fill: #24292f; /* Dark grey for light mode */
      }
      @media (prefers-color-scheme: dark) {
        .cls-1 {
          fill: #fff; /* White for dark mode */
        }
      }

      .cls-2 {
        fill: url(#radial-gradient);
      }

      .cls-3 {
        fill: url(#radial-gradient-3);
      }

      .cls-4 {
        fill: url(#radial-gradient-2);
      }

      .cls-5 {
        fill: url(#radial-gradient-4);
      }

      /* Glow gradient colors */
      .glow-stop-1 { stop-color: #0b8a12; }
      .glow-stop-2 { stop-color: #15a31e; }
      .glow-stop-3 { stop-color: #2cd137; }
      .glow-stop-4 { stop-color: #5ff167; }
      .glow-stop-5 { stop-color: #a3f8a9; }
      .glow-stop-6 { stop-color: #e0fee3; }
      .glow-stop-7 { stop-color: #ffffff; }

      @media (prefers-color-scheme: dark) {
        .glow-stop-1 { stop-color: #0b8a12; }
        .glow-stop-2 { stop-color: #0a8511; }
        .glow-stop-3 { stop-color: #09780f; }
        .glow-stop-4 { stop-color: #07630c; }
        .glow-stop-5 { stop-color: #054408; }
        .glow-stop-6 { stop-color: #021e03; }
        .glow-stop-7 { stop-color: #000000; }
      }
    </style>
    <radialGradient id="radial-gradient" cx="78.4" cy="30.2" fx="78.4" fy="30.2" r="17.91" gradientUnits="userSpaceOnUse">
      <stop class="glow-stop-1" offset=".03"/>
      <stop class="glow-stop-2" offset=".19" stop-opacity=".97"/>
      <stop class="glow-stop-3" offset=".35" stop-opacity=".87"/>
      <stop class="glow-stop-4" offset=".53" stop-opacity=".72"/>
      <stop class="glow-stop-5" offset=".7" stop-opacity=".5"/>
      <stop class="glow-stop-6" offset=".88" stop-opacity=".22"/>
      <stop class="glow-stop-7" offset="1" stop-opacity="0"/>
    </radialGradient>
    <radialGradient id="radial-gradient-2" cx="101.88" fx="101.88" r="17.91" xlink:href="#radial-gradient"/>
    <radialGradient id="radial-gradient-3" cx="78.4" cy="30.36" fx="78.4" fy="30.36" r="10.41" gradientUnits="userSpaceOnUse">
      <stop offset="0" stop-color="#fff"/>
      <stop offset=".14" stop-color="#eafee8"/>
      <stop offset=".35" stop-color="#d2fdcd"/>
      <stop offset=".56" stop-color="#c1fdba"/>
      <stop offset=".77" stop-color="#b7fdae"/>
      <stop offset="1" stop-color="#b4fdab"/>
    </radialGradient>
    <radialGradient id="radial-gradient-4" cx="101.68" fx="101.68" r="10.41" xlink:href="#radial-gradient-3"/>
  </defs>
  <circle class="cls-2" cx="78.4" cy="30.2" r="17.91"/>
  <circle class="cls-4" cx="101.88" cy="30.2" r="17.91"/>
  <path class="cls-1" d="M38.07,44.54c-2.9,0-5.45-.62-7.64-1.85-2.2-1.24-3.91-3-5.14-5.28-1.23-2.28-1.84-4.99-1.84-8.13s.66-6.07,1.97-8.36c1.31-2.29,3.07-4.03,5.28-5.23,2.2-1.19,4.65-1.79,7.33-1.79,1.76,0,3.4.25,4.92.75s2.86,1.21,4.04,2.13c1.18.92,2.12,2.01,2.83,3.26.71,1.25,1.15,2.62,1.31,4.12h-8.17c-.12-.51-.32-.96-.59-1.36s-.61-.74-1.02-1.01c-.41-.27-.88-.48-1.4-.62-.53-.14-1.11-.21-1.75-.21-1.35,0-2.5.32-3.47.97-.96.65-1.69,1.59-2.19,2.81-.5,1.23-.75,2.7-.75,4.43s.24,3.25.72,4.49c.48,1.24,1.19,2.19,2.13,2.85.94.66,2.11.99,3.52.99,1.23,0,2.25-.18,3.07-.54s1.44-.87,1.84-1.53.61-1.44.61-2.33l1.4.16h-6.81v-5.77h13.22v4.13c0,2.72-.57,5.05-1.72,6.98-1.15,1.93-2.73,3.41-4.76,4.43-2.02,1.02-4.34,1.53-6.94,1.53Z"/>
  <path class="cls-1" d="M63,14.3v29.85h-8.09V14.3h8.09Z"/>
  <path class="cls-3" d="M67.63,33.25v-5.77h21.55v5.77h-21.55ZM75.14,40.39v-20.06h6.53v20.06h-6.53Z"/>
  <path class="cls-5" d="M90.9,33.25v-5.77h21.55v5.77h-21.55ZM98.41,40.39v-20.06h6.53v20.06h-6.53Z"/>
  <path class="cls-1" d="M131.38,44.54c-2.71,0-5.17-.59-7.36-1.76-2.2-1.17-3.94-2.9-5.22-5.18-1.28-2.28-1.92-5.06-1.92-8.36s.64-6.13,1.92-8.41c1.28-2.28,3.02-4.01,5.22-5.18,2.2-1.17,4.65-1.75,7.36-1.75s5.16.58,7.35,1.75c2.19,1.17,3.93,2.89,5.22,5.18,1.29,2.28,1.93,5.09,1.93,8.41s-.64,6.11-1.93,8.38c-1.29,2.28-3.03,4-5.22,5.17-2.19,1.17-4.64,1.75-7.35,1.75ZM131.38,37.49c1.35,0,2.48-.32,3.4-.95.91-.63,1.61-1.57,2.07-2.79.47-1.23.7-2.73.7-4.51s-.23-3.3-.7-4.54c-.47-1.24-1.16-2.17-2.07-2.8-.92-.63-2.05-.95-3.4-.95s-2.46.32-3.38.95c-.91.63-1.61,1.57-2.08,2.8s-.71,2.75-.71,4.54.24,3.28.71,4.51,1.17,2.16,2.08,2.79c.92.63,2.04.95,3.38.95Z"/>
</svg>
